<svg viewBox="0 0 846 764" xmlns="http://www.w3.org/2000/svg"><path fill-rule="evenodd" clip-rule="evenodd" d="M66.747 264.138c-5.56 16.314-2.828 35.314 6.775 52.136 18.34-67.5 100.229-32.708 52.888 27.179 37.476-.361 59.489-26.637 61.023-60.731.73-16.061 1.684-24.749 4.803-31.865a37.655 37.655 0 015.665-8.95 32.236 32.236 0 01-1.871-12.981l.057-.839a32.947 32.947 0 014.601-14.228l-20.966-22.45-6.746 7.481a157.533 157.533 0 01-21.377 17.827 57.62 57.62 0 01-14.241 5.052c-30.687 7.83-59.046 8.578-70.61 42.369zm179.411-48.875L122 82.244l-17.873-4.297a11.177 11.177 0 01-5.529-3.284l-14.414-15.52c-1.947-2.095-2.956-4.84-2.805-7.637.15-2.796 1.448-5.416 3.609-7.285l19.821-16.77c2.191-1.829 5.051-2.745 7.955-2.548 2.903.197 5.613 1.492 7.535 3.601l12.767 13.925a10.265 10.265 0 012.653 5.502l4.587 21.57 122.7 131.757 14.229-12.003c.21-.179.454-.316.72-.403a2.19 2.19 0 011.635.111c.251.122.475.291.659.497l8.145 8.87c.347.371.54.849.545 1.346.186 2.601.255 4.699.346 6.479.158 4.344.251 6.531 1.014 7.339.762.808 2.954 1.074 7.304 1.66 1.869.127 4.109.57 7.103 1.064.489.069.936.306 1.257.667l62.549 69.392c5.121 4.598 8.687 10.568 10.228 17.128a32.08 32.08 0 01-1.59 19.635c-1.925 4.651-4.886 8.836-8.676 12.264-3.759 3.429-8.307 5.958-13.279 7.385-11.575 3.256-25.565.182-38.035-13.665l-59.75-66.467a2.172 2.172 0 01-.546-1.317c-.304-3.539-.443-6.399-.554-8.762-.256-4.699-.391-7.151-1.295-8.114-.903-.963-3.724-1.329-9.378-1.888-1.959-.133-4.249-.289-6.913-.731a2.163 2.163 0 01-1.347-.674l-8.005-8.715a2.021 2.021 0 01-.522-1.49 2.019 2.019 0 01.719-1.405l16.609-14.051-.02-.147zm31.892 44.742a5.102 5.102 0 01-1.049-1.738 4.93 4.93 0 01.267-3.92 5.11 5.11 0 011.275-1.579 5.49 5.49 0 013.884-1.242 5.496 5.496 0 013.68 1.756l54.027 60.263a5.048 5.048 0 011.335 3.734 5.046 5.046 0 01-1.8 3.533 5.47 5.47 0 01-3.879 1.263 5.477 5.477 0 01-3.687-1.748l-54.053-60.322zm16.964-14.376a5.043 5.043 0 01-1.34-3.725 5.035 5.035 0 011.789-3.529 5.46 5.46 0 013.869-1.268 5.467 5.467 0 013.683 1.737l54.173 60.331a5.125 5.125 0 011.055 1.736 4.957 4.957 0 01-.243 3.926 5.11 5.11 0 01-1.26 1.592 5.344 5.344 0 01-1.801 1.004 5.546 5.546 0 01-4.087-.254 5.355 5.355 0 01-1.664-1.22l-54.174-60.33zm-19.927-88.421l19.432-21.275c23.461-26.642 78.51-6.296 95.78-56.74 5.523-16.2 2.788-35.172-6.723-52.016-18.34 67.5-100.199 32.71-52.858-27.177-37.475.36-59.488 26.636-61.022 60.73-.655 14.962 2.885 27.445-13.14 45.374l-18.768 20.855 29.627 31.763a35.68 35.68 0 017.672-1.514z" fill="#fa8c16"/><path d="M654.325 282.486l-.397-.528c-2.048-2.971-6.144-3.631-9.052-1.584l-50.215 35.123c-2.973 2.047-3.634 6.14-1.585 9.045l.396.528c2.048 2.971 6.145 3.631 9.052 1.585l50.215-35.124c2.907-2.046 3.634-6.14 1.586-9.045zm132.409 198.065l-27.222 126.893c-6.739 31.558-22.002 55.656-43.674 72.161-14.998 11.422-32.904 19.014-53.056 22.778l17.84 38.16c3.832 8.253.264 18.09-7.995 21.919-8.259 3.829-18.104.264-21.936-7.989l-23.126-49.384H232.32l-23.125 49.384c-3.832 8.253-13.677 11.818-21.936 7.989-8.259-3.829-11.827-13.666-7.995-21.919l16.849-36.048c-25.769-2.244-46.912-10.497-63.958-24.626-19.888-16.505-33.5-40.471-41.626-71.699L57.03 480.551H30.866c-8.325 0-15.924-3.433-21.474-8.913v-.066l-.066.066c-5.484-5.546-8.92-13.139-8.92-21.523v-27.663c0-8.385 3.436-15.977 8.92-21.523.396-.396.859-.858 1.322-1.189a30.009 30.009 0 0120.152-7.724c262.153 0 461.268-.066 756.066-.066V228.217c-9.647-47.338-37-60.212-73.539-54.996 16.453 28.653 14.338 57.769-8.985 87.478 2.973 4.82 2.709 10.102-.529 15.713l-7.268 8.385c-2.907 2.971-6.541 3.235-11.232-.528L573.65 171.57c-3.039-3.631-2.444-6.8 1.124-9.573 7.928-9.705 8.919-11.355 22.993-8.979 31.318-20.334 61.117-23.965 89.198-7.856 70.499-28.918 130.493 7.394 138.619 81.338v167.431c4.163 1.518 7.863 3.961 10.902 6.998a30.434 30.434 0 018.92 21.523v27.663c0 8.384-3.436 15.977-8.92 21.523-5.484 5.48-13.148 8.913-21.473 8.913h-28.279zm-195.64-252.334l-.397-.528c-2.048-2.971-6.145-3.632-9.052-1.585l-50.215 35.124c-2.973 2.046-3.634 6.139-1.586 9.044l.397.529c2.048 2.971 6.145 3.631 9.052 1.584l50.215-35.123c2.973-2.047 3.634-6.14 1.586-9.045zm-28.874-29.05l-.397-.528c-2.048-2.971-6.144-3.631-9.051-1.584l-50.215 35.123c-2.974 2.047-3.634 6.14-1.586 9.045l.396.528c2.048 2.971 6.145 3.631 9.052 1.585l50.215-35.124c2.907-2.046 3.634-6.14 1.586-9.045zm57.681 57.109l-.396-.528c-2.049-2.971-6.145-3.631-9.052-1.585l-50.215 35.124c-2.974 2.046-3.634 6.14-1.586 9.045l.396.528c2.049 2.971 6.145 3.631 9.052 1.584l50.281-35.123c2.842-2.047 3.568-6.074 1.52-9.045zM56.568 425.159c-2.643.66-5.286.594-7.797 0H33.575v22.183h778.729v-22.183H56.568z" fill="#fa8c16"/></svg>