<svg viewBox="0 0 727 715" xmlns="http://www.w3.org/2000/svg"><path fill-rule="evenodd" clip-rule="evenodd" d="M0 .817h726.528V125.96H0V.817zm26.42 26.419h673.689v72.653H26.419V27.236zM0 150.989h336.355v311.967H116.01v-110.54c6.553-31.959 25.136-40.651 49.958-37.129-11.177 19.344-9.741 39.001 6.104 59.058-2.02 3.254-1.84 6.82.359 10.609l4.938 5.66c1.975 2.006 4.443 2.184 7.63-.356l75.858-76.086c2.064-2.451 1.66-4.591-.763-6.463l-.345-.419c-5.075-6.18-5.923-7.212-15.276-5.642-21.276-13.729-41.519-16.18-60.596-5.305-47.893-19.522-88.65 4.993-94.17 54.914v113.036c-2.828 1.025-5.342 2.674-7.407 4.724a20.507 20.507 0 00-5.978 12.708H0V150.989zm206.32 237.709l-.269.356c-1.392 1.961-.898 4.725 1.077 6.107l34.113 23.712c1.975 1.382 4.758.936 6.15-1.069l.269-.357c1.392-1.961.943-4.725-1.077-6.106l-34.114-23.713c-1.975-1.382-4.757-.936-6.149 1.07zm42.956-36.639l-.269.357c-1.392 1.961-.943 4.724 1.077 6.106l34.113 23.713c1.975 1.381 4.758.936 6.15-1.07l.269-.357c1.391-1.961.943-4.724-1.077-6.106l-34.114-23.713c-1.975-1.381-4.758-.936-6.149 1.07zm19.615-19.612l-.269.357c-1.392 1.961-.898 4.724 1.077 6.106l34.113 23.713c1.975 1.381 4.758.936 6.15-1.07l.269-.357c1.392-1.961.943-4.724-1.077-6.106l-34.113-23.713c-1.975-1.381-4.758-.936-6.15 1.07zm-39.185 38.555l-.27.357c-1.391 2.006-.897 4.725 1.033 6.106l34.158 23.713c1.975 1.382 4.758.936 6.149-1.07l.27-.356c1.391-1.962.942-4.725-1.078-6.107l-34.113-23.712c-1.975-1.382-4.758-.936-6.149 1.069z" fill="#fa8c16"/><path d="M650.206 481.725c.054.601.081 1.209.081 1.823v18.676c0 5.661-2.334 10.786-6.059 14.531l-.045-.045v.045c-3.771 3.699-8.933 6.017-14.588 6.017H611.82l-22.757 86.159c-5.521 21.082-14.768 37.262-28.278 48.405-4.736 4.824-15.358 8.84-30.203 12.105h195.946v44.694H0v-44.694h202.229c-19.477-3.419-33.118-7.546-37.967-12.283-14.723-11.143-25.091-27.412-29.67-48.718l-18.493-85.668h-19.21a20.748 20.748 0 01-14.589-6.017c-3.725-3.745-6.06-8.87-6.06-14.531v-18.676c0-.614.028-1.222.082-1.823h22.342l.064 18.627h529.026v-18.627h22.452zm0 0c-.442-4.934-2.657-9.37-5.978-12.708-.27-.267-.584-.579-.898-.802A20.457 20.457 0 00629.64 463h-2.738c-.763-8.112-3.905-15.779-8.753-22.464-4.938-6.865-11.76-12.704-19.526-16.715-7.81-4.056-16.652-6.329-25.584-6.062-7.856.267-15.666 2.407-22.892 6.953a51.274 51.274 0 00-11.536-11.945 52.953 52.953 0 00-31.69-10.475c-9.874 0-19.121 2.675-26.976 7.31a51.375 51.375 0 00-15.575 14.174c-12.524.981-23.835 6.285-32.318 14.397-6.958 6.686-11.985 15.244-14.184 24.783h-54.604V356.582h363.264v125.143h-76.322z" fill="#fa8c16"/><path fill-rule="evenodd" clip-rule="evenodd" d="M726.528 150.989H363.264v178.776h363.264V150.989zm-284.006 41.367h33.024v112.281h-33.024V192.356zm-52.839 0h33.024v112.281h-33.024V192.356zm310.426 0H587.827v112.281h112.282V192.356zM495.36 245.194h19.815v59.443H495.36v-59.443z" fill="#fa8c16"/><path d="M604.1 463H441.388c1.436-3.298 3.546-6.24 6.149-8.692 5.342-5.125 12.748-8.29 20.962-8.29.689 0 .596-.013.511-.026-.07-.01-.133-.019.252-.019l.763.045c4.219.178 8.394-2.006 10.459-5.973 2.423-4.591 6.194-8.469 10.817-11.187a30.734 30.734 0 0115.531-4.19c6.912 0 13.241 2.228 18.223 5.928 4.983 3.744 8.708 8.959 10.324 14.932.539 2.273 1.84 4.412 3.815 6.017 4.803 3.878 11.895 3.165 15.8-1.605 5.521-6.73 12.164-9.672 18.673-9.895 4.937-.178 9.965 1.159 14.498 3.521 4.578 2.407 8.618 5.884 11.626 9.985 2.109 2.941 3.635 6.151 4.309 9.449z" fill="#fa8c16"/></svg>