<svg viewBox="0 0 582 713" fill="#fa8c16" xmlns="http://www.w3.org/2000/svg"><path fill-rule="evenodd" clip-rule="evenodd" d="M581.406 0h-116.2v635.5h116.2V0zm-34.86 263.5H503.94v104.625h42.606V263.5z"/><path d="M.406 658.75h581V713h-581v-54.25z"/><path fill-rule="evenodd" clip-rule="evenodd" d="M.406 0h437.687v635.5H.406V82.86C14.07 65.078 80.705 51.404 97.457 62.698c-9.92 17.315-8.656 34.91 5.429 52.878-1.779 2.941-1.638 6.067.374 9.521l4.445 5.087c1.778 1.774 3.978 1.961 6.832-.373l67.618-68.14c1.825-2.193 1.497-4.06-.655-5.787l-.403-.488c-4.456-5.402-5.222-6.331-13.495-4.925-18.952-12.322-37.015-14.469-54.047-4.715C80.939 26.995 29.465 33.856.406 55.931V0zm132.802 128.691l.234-.373a3.973 3.973 0 015.521-.934l30.417 21.235a3.952 3.952 0 01.936 5.508l-.234.373a3.975 3.975 0 01-5.522.933l-30.416-21.235c-1.731-1.213-2.153-3.734-.936-5.507zm152.221 322.123V582.66c0 17.314-12.634 25.715-28.076 25.715s-28.077-8.401-28.077-25.715V453.848h-16.845V582.66c0 17.314-12.635 25.715-28.077 25.715-15.442 0-28.076-8.401-28.076-25.715V450.814a7.624 7.624 0 01-1.171-4.014V335.303l-78.614-39.81c-10.902-5.507-15.676-18.342-11.324-29.45l29.106-82.654c4.258-12.228 17.689-18.668 29.948-14.421 12.261 4.247 18.718 17.642 14.46 29.869l-22.555 64.08 60.739 30.756c.841.419 1.588.885 2.335 1.35 22.087-13.301 54.8-15.118 78.291-6.577l57.931-35.283-26.532-65.013c-4.867-12.041.936-25.716 13.009-30.616 12.073-4.854 25.783.933 30.697 12.974l34.066 83.448c4.258 10.454.374 22.775-9.593 28.842l-70.518 42.984V446.8a7.043 7.043 0 01-1.124 4.014zM220.9 170.368c28.217 0 51.052 22.822 51.052 50.918 0 28.143-22.882 50.918-51.052 50.918-28.217 0-51.052-22.822-51.052-50.918-.047-28.096 22.835-50.918 51.052-50.918zm-49.368-74.44l.234-.374a3.975 3.975 0 015.522-.933l30.416 21.235a3.95 3.95 0 01.936 5.507l-.234.374a3.975 3.975 0 01-5.522.933l-30.416-21.235a3.95 3.95 0 01-.936-5.507zm17.502-17.502l.233-.373a3.975 3.975 0 015.522-.933l30.416 21.235a3.95 3.95 0 01.936 5.507l-.234.373a3.974 3.974 0 01-5.522.934l-30.416-21.235c-1.731-1.26-2.152-3.734-.935-5.508zm-34.909 34.537l.234-.374a3.975 3.975 0 015.522-.933l30.416 21.235a3.951 3.951 0 01.936 5.507l-.234.374a3.975 3.975 0 01-5.522.933l-30.416-21.235a3.95 3.95 0 01-.936-5.507z"/></svg>