<svg viewBox="0 0 846 629" xmlns="http://www.w3.org/2000/svg"><path d="M654.325 147.421l-.397-.529c-2.048-2.971-6.144-3.631-9.051-1.584l-50.216 35.128c-2.973 2.047-3.634 6.141-1.585 9.046l.396.528c2.048 2.972 6.145 3.632 9.052 1.585l50.215-35.128c2.907-2.047 3.634-6.141 1.586-9.046zm132.409 198.091l-27.222 126.91c-6.739 31.563-22.002 55.664-43.674 72.172-14.998 11.423-32.904 19.016-53.056 22.78l17.84 38.166c3.832 8.253.264 18.092-7.995 21.922-8.259 3.83-18.104.264-21.936-7.99l-23.125-49.391H232.32l-23.125 49.391c-3.832 8.254-13.677 11.82-21.936 7.99s-11.827-13.669-7.995-21.922l16.849-36.053c-25.769-2.245-46.912-10.499-63.958-24.629-19.888-16.508-33.5-40.477-41.626-71.709L57.03 345.512H30.866c-8.325 0-15.924-3.434-21.474-8.914v-.066l-.066.066c-5.484-5.547-8.92-13.14-8.92-21.526v-27.667c0-8.386 3.436-15.979 8.92-21.526.396-.396.859-.858 1.322-1.188a30.006 30.006 0 0120.152-7.726h4.03c1.123-12.017 5.748-23.375 12.884-33.279 7.268-10.169 17.311-18.819 28.742-24.762 11.496-6.008 24.512-9.376 37.661-8.98 11.563.397 23.059 3.566 33.697 10.301a75.741 75.741 0 0116.98-17.696 77.615 77.615 0 0146.648-15.517c14.535 0 28.146 3.962 39.709 10.829 9.052 5.348 16.848 12.546 22.927 20.997 18.434 1.453 35.085 9.311 47.572 21.328 10.242 9.905 17.642 22.583 20.879 36.713h444.337V93.144c-9.646-47.344-37-60.22-73.538-55.004 16.452 28.658 14.337 57.777-8.986 87.491 2.973 4.82 2.709 10.102-.529 15.715l-7.268 8.386c-2.907 2.971-6.541 3.235-11.232-.528L573.65 36.49c-3.039-3.632-2.444-6.802 1.124-9.575 7.928-9.706 8.919-11.357 22.993-8.98 31.318-20.337 61.117-23.969 89.198-7.857 70.499-28.922 130.493 7.395 138.62 81.349V258.88c4.162 1.519 7.862 3.962 10.901 6.999a30.437 30.437 0 018.92 21.526v27.667c0 8.386-3.435 15.979-8.92 21.526-5.484 5.48-13.148 8.914-21.473 8.914h-28.279zM591.094 93.144l-.397-.529c-2.048-2.97-6.145-3.631-9.052-1.584l-50.215 35.128c-2.973 2.047-3.634 6.141-1.586 9.046l.397.528c2.048 2.972 6.145 3.632 9.052 1.585l50.215-35.128c2.973-2.047 3.634-6.14 1.586-9.046zM562.22 64.09l-.397-.528c-2.048-2.971-6.144-3.632-9.051-1.585l-50.215 35.129c-2.974 2.047-3.634 6.14-1.586 9.046l.396.528c2.048 2.971 6.145 3.632 9.052 1.585l50.215-35.129c2.907-2.046 3.634-6.14 1.586-9.046zm57.681 57.117l-.396-.529c-2.049-2.971-6.145-3.631-9.052-1.584l-50.215 35.128c-2.973 2.047-3.634 6.141-1.586 9.046l.396.528c2.049 2.972 6.145 3.632 9.052 1.585l50.281-35.128c2.842-2.047 3.568-6.075 1.52-9.046zM68.395 256.965h239.512c-2.114-4.886-5.22-9.244-9.052-12.876-7.862-7.593-18.764-12.281-30.856-12.281-1.85 0 .133-.066-1.123-.066l-1.123.066c-6.211.264-12.355-2.972-15.395-8.849-3.568-6.801-9.118-12.545-15.923-16.573a45.022 45.022 0 00-22.861-6.207c-10.175 0-19.492 3.302-26.826 8.782-7.334 5.547-12.818 13.272-15.196 22.12-.793 3.368-2.709 6.537-5.617 8.914-7.069 5.745-17.509 4.689-23.257-2.377-8.127-9.97-17.906-14.328-27.486-14.659-7.268-.264-14.668 1.717-21.341 5.217-6.74 3.566-12.686 8.716-17.113 14.791-3.106 4.358-5.352 9.112-6.343 13.998zm-11.827 33.147c-2.643.661-5.286.595-7.797 0H33.575v22.187h778.729v-22.187H56.568z" fill="#fa8c16"/></svg>