<svg viewBox="0 0 674 753" fill="#fa8c16" xmlns="http://www.w3.org/2000/svg"><path fill-rule="evenodd" clip-rule="evenodd" d="M4.186 594.409c-9.422 35.174-.897 74.822 21.858 108.893 29.1-144.864 207.485-83.278 115.889 49.698 79.29-6.128 122.107-64.65 120.441-136.714-.77-33.949 0-52.394 5.576-67.836a79.462 79.462 0 0110.704-19.671 67.818 67.818 0 01-5.832-27.085v-1.777c.162-10.632 2.789-21.096 7.691-30.64l-47.625-44.305-13.204 16.729a333.476 333.476 0 01-42.689 40.628 122.434 122.434 0 01-29.421 12.685C83.732 515.91 23.8 521.548 4.186 594.409zm372.795-128.686L94.949 203.202l-38.459-6.495c-4.61-.83-8.853-2.965-12.178-6.128l-32.754-30.64c-4.425-4.135-6.956-9.776-7.04-15.691-.084-5.914 2.286-11.62 6.591-15.868l39.549-38.177c4.373-4.169 10.297-6.51 16.473-6.51 6.176 0 12.1 2.341 16.473 6.51l29.036 27.515c3.254 3.047 5.485 6.95 6.41 11.214l12.82 44.795 278.762 260.069 28.396-27.33a4.492 4.492 0 011.467-.953 4.665 4.665 0 013.476 0c.55.221 1.049.545 1.467.953l18.524 17.525a4.215 4.215 0 011.346 2.758c.769 5.454 1.218 9.866 1.667 13.604.961 9.131 1.474 13.727 3.204 15.32 1.731 1.593 6.41 1.838 15.705 2.451 3.974 0 8.781.613 15.191 1.226a4.379 4.379 0 012.756 1.225l142.426 137.266c11.506 8.956 19.915 21.026 24.124 34.629a67.455 67.455 0 01-.536 41.602c-3.406 10.076-9.071 19.32-16.601 27.086-7.464 7.764-16.729 13.746-27.05 17.464-24.037 8.518-54.099 4.045-82.494-23.347L407.62 563.77a4.577 4.577 0 01-1.346-2.697c-1.154-7.415-1.859-13.42-2.436-18.384-1.218-9.866-1.859-15.013-3.91-16.913-2.051-1.899-8.076-2.267-20.127-2.635-4.166 0-9.038 0-14.742-.551a4.586 4.586 0 01-2.949-1.226l-18.204-17.219a4.257 4.257 0 01-1.32-3.064c0-1.148.475-2.249 1.32-3.064l33.139-31.988-.064-.306zm73.969 89.713a10.772 10.772 0 01-2.471-3.511 10.38 10.38 0 01-.869-4.149c0-1.425.296-2.835.869-4.15a10.768 10.768 0 012.471-3.51c2.138-2.032 5.03-3.173 8.044-3.173 3.015 0 5.907 1.141 8.045 3.173l123.068 119.249c2.142 2.032 3.352 4.794 3.364 7.678.012 2.885-1.175 5.656-3.3 7.703-2.125 2.048-5.014 3.205-8.031 3.216-3.017.012-5.916-1.123-8.058-3.154L450.95 555.436zm33.844-32.724c-2.142-2.023-3.356-4.777-3.374-7.656-.018-2.879 1.161-5.646 3.278-7.694 2.116-2.048 4.997-3.208 8.008-3.225 3.011-.017 5.906 1.11 8.048 3.133l123.389 119.372a10.847 10.847 0 012.483 3.507c.579 1.314.882 2.724.891 4.149a10.425 10.425 0 01-.839 4.159 10.826 10.826 0 01-2.439 3.536 11.402 11.402 0 01-3.668 2.374 11.827 11.827 0 01-8.69.049 11.391 11.391 0 01-3.698-2.332L484.794 522.712zm-54.932-183.47l38.074-47.614c45.83-59.502 165.309-24.512 194.602-133.282 9.358-34.929.833-74.516-21.729-108.649C611.708 194.563 433.387 132.976 524.983 0c-79.289 6.128-122.106 64.65-120.44 136.714.769 31.62 10.063 57.419-21.281 97.495l-36.728 46.634 67.303 62.689a76.213 76.213 0 0116.025-4.29z"/></svg>