<svg viewBox="0 0 898 682" fill="#fa8c16" xmlns="http://www.w3.org/2000/svg"><path fill-rule="evenodd" clip-rule="evenodd" d="M76.875 682V393.081c-15.64 5.987-30.256 6.133-42.388 1.972-9.5-3.213-17.467-8.908-23.387-16.356-5.846-7.374-9.646-16.428-10.743-26.358-1.754-15.406 2.85-32.856 16.006-49.139.657-.803 1.388-1.606 2.265-2.263L438.344 3.694c4.969-4.526 12.57-5.038 18.051-.73l420.593 296.659c.584.438 1.169.949 1.68 1.533 17.687 18.984 22.071 40.085 17.833 57.9-2.12 8.835-6.359 16.648-12.132 23.219-5.774 6.571-13.228 11.609-21.633 14.603-13.374 4.819-29.233 4.673-45.311-2.921V682h-37.419V377.529c0-6.717-300.663-213.641-329.604-236.129-30.622 23.292-336.108 228.463-336.108 237.151V682H76.875zm95.3-.073c0-122.957 100.782-54.907 109.625-130.331.95-8.178-18.417-39.501-22.875-54.542-9.501-15.187-12.936-39.209-2.485-55.199 4.093-6.352 2.339-29.571 2.339-38.333 0-24.752 11.693-38.916 27.552-52.205 5.774-4.819 6.797-10.587 15.201-12.632 41.731-10.076 109.99 12.851 109.99 64.91 0 11.026-2.558 31.251 3.435 39.939 5.774 8.397 6.504 20.59 4.385 31.981a118.8 118.8 0 00-6.724 5.622c-4.969 4.381-9.939 9.273-14.835 14.603-.22.219-.512.438-.731.657-2.339 2.336-4.093 5.257-5.043 8.689-1.973 7.301 2.558 14.676 7.82 19.422-6.139 11.463-13.74 22.342-12.79 27.161 1.535 7.739 7.309 14.895 15.494 21.393v.146c0 .438.073.803.073 1.241.292 2.848.731 5.55 1.389 7.959a42.047 42.047 0 002.996 7.813c2.192 4.308 5.116 8.104 8.843 11.025 1.827 1.46 3.873 2.774 6.066 3.797.585.657 1.096 1.314 1.681 1.898l.95 1.095c-16.955 3.213-28.795 6.279-38.734 16.136-11.036 10.88-15.201 26.213-15.201 53.812 0 1.387.146 2.775.292 4.016l-198.713-.073zM528.528 471.28c20.902-123.103 141.269-120.182 159.394 8.835 11.912 84.916 62.851 81.849-16.736 81.849h-31.718c-.146 21.612-3.508 32.637 18.928 44.831 22.437 12.12 67.456 18.327 67.456 49.066v19.641c0 1.606-1.316 2.847-2.85 2.847H598.907v-.438c0-27.599-4.239-42.932-15.201-53.812-8.697-8.542-18.783-11.974-32.522-14.895 2.704-1.241 5.262-2.628 7.673-4.015 19.733-11.829 16.371-23.73 16.225-43.298h-8.624c-.146-1.022-.292-1.971-.512-2.848h-.073c-.95-4.307-2.484-8.469-4.677-12.193-.365-.657-.804-1.314-1.169-1.898v-2.848c2.631-9.784 3.361-20.59 1.608-30.593-1.901-11.244-6.797-21.831-15.202-29.717-4.312-4.089-9.135-7.082-14.397-9.2a24.917 24.917 0 00-3.508-1.314zm-109.405 38.771c29.818-32.93 64.313-50.746 90.111-21.54 6.797.292 12.863 2.556 17.905 7.302 10.597 10.003 12.278 28.695 7.455 43.516v12.924c3.289 2.19 5.408 6.206 6.358 10.806.658 2.994.804 6.279.439 9.346-.293 3.213-1.097 6.352-2.412 8.908-1.827 3.651-4.604 6.206-8.478 6.79-3.727 4.016-7.381 8.178-10.67 12.267-3.581 4.527-6.65 8.688-8.697 12.266-1.608 2.702-1.096 4.454-.511 6.425.292 1.023.584 2.045.804 3.14 6.577 1.387 12.424 2.483 17.759 3.505 33.618 6.279 44.142 8.25 44.142 52.059 0 2.191-1.827 4.016-4.02 4.016H402.387a4.006 4.006 0 01-4.02-4.016c0-43.809 10.451-45.707 44.142-52.059 5.335-1.022 11.328-2.118 17.833-3.505.219-.876.511-1.679.803-2.482.658-1.899 1.316-3.87-.657-7.083-2.12-3.505-5.189-7.739-8.697-12.266-3.216-4.089-6.943-8.324-10.597-12.267-3.801-.584-6.651-3.139-8.478-6.79-1.315-2.483-2.119-5.695-2.412-8.908-.292-3.14-.146-6.425.439-9.346.95-4.6 3.069-8.616 6.285-10.806l-4.385-2.629c-1.169-12.777 2.266-35.266-13.52-39.573zM703.635 23.773l114.667 4.673v154.718l-114.667-75.643V23.773z"/></svg>