<svg viewBox="0 0 814 682" fill="#fa8c16" xmlns="http://www.w3.org/2000/svg"><path fill-rule="evenodd" clip-rule="evenodd" d="M76.262 681.857V390.311c-15.5 5.964-30.016 6.091-42.067 1.988-9.396-3.181-17.346-8.891-23.18-16.239-5.835-7.364-9.54-16.302-10.668-26.179-1.717-15.3 2.845-32.604 15.898-48.827.668-.795 1.383-1.59 2.258-2.258L396.46 3.656c4.897-4.502 12.448-4.963 17.87-.732L793.161 297.54c.589.461 1.113.922 1.654 1.526 17.552 18.879 21.924 39.825 17.679 57.511a53.713 53.713 0 01-12.051 23.062 52.192 52.192 0 01-21.463 14.505c-13.244 4.771-29.015 4.644-44.977-2.911v289.829h-37.092V374.931c0-6.696-259.862-212.167-288.543-234.512-30.398 23.125-295.014 226.957-295.014 235.578V682l-37.092-.143zm500.329-334.17H237.41c-4.753 0-8.458 3.371-8.458 8.254v100.692c0 2.322.97 4.437 2.496 5.98 1.543 1.543 3.641 2.497 5.962 2.497h339.181c4.595 0 8.458-3.865 8.458-8.477V355.941c0-4.867-3.625-8.254-8.458-8.254zM328.907 635.129V682h-48.348v-46.871h48.348zm204.535 0V682h-48.348v-46.871h48.348zm-18.347-251.594c13.911 0 25.183 11.293 25.183 25.193 0 13.917-11.272 25.193-25.183 25.193s-25.183-11.276-25.183-25.193c0-13.9 11.272-25.193 25.183-25.193zm61.496 108.787H237.41c-4.753 0-8.458 3.404-8.458 8.255v100.692c0 4.644 3.816 8.461 8.458 8.461h339.181c4.61 0 8.458-3.833 8.458-8.461V500.577c0-4.978-3.705-8.255-8.458-8.255zm-311.724 31.189h21.161v54.823h-21.161v-54.823zm58.539 0h21.177v54.823h-21.177v-54.823zm58.538 0h21.177v54.823h-21.177v-54.823zm-117.077-144.62h21.161v54.823h-21.161v-54.823zm58.539 0h21.177v54.823h-21.177v-54.823zm58.538 0h21.177v54.823h-21.177v-54.823z"/></svg>