<svg viewBox="0 0 921 680" fill="#fa8c16" xmlns="http://www.w3.org/2000/svg"><path fill-rule="evenodd" clip-rule="evenodd" d="M59.483 462.902V304.095c-12.087 4.647-23.405 4.75-32.81 1.549-7.338-2.473-13.54-6.919-18.087-12.645-4.547-5.726-7.441-12.701-8.314-20.394-1.344-11.927 2.222-25.398 12.397-38.053.517-.619 1.085-1.239 1.757-1.755L309.267 2.85c3.824-3.506 9.716-3.873 13.958-.568L618.739 231.82a8.9 8.9 0 011.286 1.188c13.695 14.715 17.11 31.03 13.803 44.811a41.743 41.743 0 01-9.405 17.968 40.703 40.703 0 01-16.743 11.307c-10.336 3.712-22.63 3.609-35.084-2.272v157.454h-28.933V292.122c0-5.22-202.718-165.315-225.089-182.709-23.719 18.014-230.147 176.828-230.147 183.535V463l-28.944-.098zm264.884-258.043v64.808h58.188v-.181c0-17.864-7.317-34.113-19.099-45.895-10.284-10.264-23.948-17.142-39.089-18.732zm0 78.496v40.236h58.188v-40.236h-58.188zm-13.699 40.195v-40.195h-58.199v40.236h58.194v-.041h.005zm0-53.883v-64.808c-15.178 1.621-28.805 8.468-39.083 18.732-11.783 11.782-19.11 28.031-19.11 45.895v.181h58.193zm6.847-78.852c21.668 0 41.352 8.86 55.589 23.09 14.283 14.266 23.115 33.932 23.115 55.54v67.761H238.775V269.45c0-21.649 8.873-41.315 23.11-55.54 14.278-14.235 33.962-23.095 55.63-23.095zM484.488 18.339l88.723 3.614v119.724l-88.723-58.499V18.34z"/><path fill-rule="evenodd" clip-rule="evenodd" d="M622.095 491.27H0v76.618a33.79 33.79 0 009.879 23.803 33.71 33.71 0 0023.774 9.89h44.97a89.496 89.496 0 0127.401-60.869 89.282 89.282 0 0161.867-24.917 89.285 89.285 0 0161.867 24.917 89.497 89.497 0 0127.399 60.869h122.546a89.497 89.497 0 0127.399-60.869 89.285 89.285 0 0161.867-24.917 89.286 89.286 0 0161.868 24.917 89.497 89.497 0 0127.399 60.869h140.983c5.022-114.438 168.94-130.272 185.655 0H921c-13.566-144.08 5.247-112.562-131.165-164.566a184.193 184.193 0 00-11.542-50.053C752.36 315.372 709.338 321.6 622.095 321v170.27zm-153.126 46.601a67.398 67.398 0 00-37.476 11.382 67.523 67.523 0 00-24.845 30.31 67.615 67.615 0 00-3.838 39.021 67.56 67.56 0 0018.461 34.581 67.432 67.432 0 0034.538 18.483 67.38 67.38 0 0038.975-3.843 67.47 67.47 0 0030.273-24.875 67.596 67.596 0 0011.369-37.522 67.577 67.577 0 00-19.758-47.756 67.413 67.413 0 00-47.699-19.781zm0 41.648a26.06 26.06 0 00-14.591 4.218 26.104 26.104 0 00-9.772 11.64 26.147 26.147 0 005.412 28.586 26.077 26.077 0 0013.349 7.252 26.05 26.05 0 0015.121-1.421 26.085 26.085 0 0011.767-9.614 26.147 26.147 0 004.423-14.546 26.052 26.052 0 00-7.591-18.462 25.987 25.987 0 00-18.417-7.653h.299zm-300.928-41.648a67.4 67.4 0 00-37.477 11.382 67.523 67.523 0 00-24.845 30.31 67.613 67.613 0 00-3.838 39.021 67.56 67.56 0 0018.461 34.581 67.432 67.432 0 0034.538 18.483 67.38 67.38 0 0038.975-3.843 67.47 67.47 0 0030.273-24.875 67.596 67.596 0 0011.369-37.522 67.577 67.577 0 00-19.758-47.756 67.412 67.412 0 00-47.698-19.781zm0 41.648a26.057 26.057 0 00-14.512 4.365 26.097 26.097 0 00-9.639 11.704 26.139 26.139 0 005.606 28.485 26.057 26.057 0 0028.434 5.694 26.093 26.093 0 0011.718-9.617 26.139 26.139 0 00-3.212-32.956 26.07 26.07 0 00-18.395-7.675zm624.043-48.402a74.291 74.291 0 00-41.328 12.509 74.423 74.423 0 00-27.417 33.393 74.527 74.527 0 00-4.262 43.016 74.469 74.469 0 0020.331 38.135 74.321 74.321 0 0038.068 20.394 74.266 74.266 0 0042.969-4.223 74.374 74.374 0 0033.38-27.417 74.508 74.508 0 00-9.215-93.977 74.308 74.308 0 00-52.526-21.83zm0 45.776a28.602 28.602 0 00-15.927 4.794 28.66 28.66 0 00-10.578 12.849 28.69 28.69 0 006.158 31.266 28.623 28.623 0 0014.659 7.866 28.594 28.594 0 0016.552-1.619 28.638 28.638 0 0012.862-10.557 28.69 28.69 0 00-3.529-36.177 28.61 28.61 0 00-20.197-8.422zm-84.845-216.796l-41.972-.676v77.594h77.724a137.175 137.175 0 00-35.752-76.918z"/></svg>