<svg viewBox="0 0 1200 831" xmlns="http://www.w3.org/2000/svg"><path d="M0 0h1200v94H0V0zm1161 614c-69.04 0-125-76.559-125-171s55.96-171 125-171v342zM949 389.5c0-20.158 16.342-36.5 36.5-36.5 20.16 0 36.5 16.342 36.5 36.5v107c0 20.158-16.34 36.5-36.5 36.5-20.158 0-36.5-16.342-36.5-36.5v-107z" fill="#fa8c16"/><path d="M0 94h39v737H0V94zm1200 0h-39v698H600v39h600V94z" fill="#387AF9"/><path fill-rule="evenodd" clip-rule="evenodd" d="M363.852 244.53c3.574-13.337 17.282-21.252 30.619-17.678l42.339 11.345c13.337 3.573 21.252 17.282 17.678 30.618-3.573 13.337-17.282 21.252-30.619 17.678l-42.339-11.345c-13.337-3.573-21.251-17.282-17.678-30.618zm127.019 34.034c3.574-13.336 17.282-21.251 30.619-17.677l84.679 22.689c13.337 3.574 21.252 17.282 17.678 30.619-3.574 13.337-17.282 21.251-30.619 17.678l-84.679-22.69c-13.337-3.574-21.251-17.282-17.678-30.619zm169.359 45.38c3.574-13.337 17.282-21.251 30.619-17.678l84.679 22.69c13.337 3.574 21.252 17.282 17.678 30.619-3.573 13.336-17.282 21.251-30.619 17.677l-84.679-22.689c-13.337-3.574-21.251-17.282-17.678-30.619zm169.359 45.38c3.574-13.337 17.282-21.252 30.619-17.678l42.34 11.345c13.336 3.573 21.251 17.282 17.677 30.618-3.573 13.337-17.282 21.252-30.618 17.678l-42.34-11.345c-13.337-3.573-21.251-17.282-17.678-30.618zM343 445c0-13.807 11.193-25 25-25h43.833c13.807 0 25 11.193 25 25s-11.193 25-25 25H368c-13.807 0-25-11.193-25-25zm131.5 0c0-13.807 11.193-25 25-25h87.667c13.807 0 25 11.193 25 25s-11.193 25-25 25H499.5c-13.807 0-25-11.193-25-25zm175.333 0c0-13.807 11.193-25 25-25H762.5c13.807 0 25 11.193 25 25s-11.193 25-25 25h-87.667c-13.807 0-25-11.193-25-25zm175.334 0c0-13.807 11.192-25 25-25H894c13.807 0 25 11.193 25 25s-11.193 25-25 25h-43.833c-13.808 0-25-11.193-25-25zm93.058 51.53c3.574 13.336-4.341 27.045-17.677 30.618l-42.34 11.345c-13.337 3.574-27.045-4.341-30.619-17.678-3.573-13.336 4.341-27.045 17.678-30.618l42.34-11.345c13.336-3.574 27.045 4.341 30.618 17.678zm-127.019 34.034c3.574 13.337-4.341 27.045-17.678 30.619l-84.679 22.69c-13.337 3.573-27.045-4.341-30.619-17.678-3.573-13.337 4.341-27.045 17.678-30.619l84.679-22.689c13.337-3.574 27.046 4.341 30.619 17.677zm-169.359 45.38c3.574 13.337-4.341 27.045-17.678 30.618l-84.679 22.69c-13.337 3.574-27.045-4.341-30.619-17.677-3.573-13.337 4.341-27.045 17.678-30.619l84.679-22.69c13.337-3.573 27.045 4.341 30.619 17.678zm-169.359 45.379c3.574 13.337-4.341 27.046-17.678 30.619l-42.339 11.345c-13.337 3.574-27.045-4.341-30.619-17.678-3.574-13.336 4.341-27.045 17.678-30.618l42.339-11.345c13.337-3.574 27.045 4.341 30.619 17.677z" fill="#387AF9"/></svg>