<svg viewBox="0 0 813 682" fill="#fa8c16" xmlns="http://www.w3.org/2000/svg"><path fill-rule="evenodd" clip-rule="evenodd" d="M76.157 681.874v-291.57c-15.476 5.964-29.965 6.097-42.007 1.988-9.395-3.174-17.334-8.88-23.157-16.229-5.822-7.349-9.527-16.302-10.645-26.176-1.72-15.309 2.845-32.598 15.872-48.841.662-.795 1.39-1.59 2.25-2.253L395.96 3.658c4.896-4.5 12.438-4.97 17.87-.73l378.35 294.613c.596.464 1.125.927 1.648 1.524 17.533 18.887 21.906 39.827 17.672 57.515a53.62 53.62 0 01-12.042 23.061 52.075 52.075 0 01-21.437 14.513c-13.232 4.765-28.972 4.632-44.917-2.916v289.834h-37.045V374.936c0-6.7-259.542-212.18-288.184-234.506-30.368 23.121-294.661 226.958-294.661 235.566V682l-37.057-.126zm194.173-65.679c11.81 18.396 23.614 35.487 35.424 51.252l-.735 5.428c-16.732 5.089-33.22 8.138-49.456 9.118l-4.671-3.949-2.951-6.163c-1.317-2.625-3.937-8.171-7.873-16.634-3.944-8.462-7.391-16.395-10.335-23.784h-16.488l1.727 47.562h-49.456l2.461-46.813-2.461-112.624 75.537-.245c17.877 0 31.659 4.234 41.332 12.69 9.68 8.456 14.516 20.663 14.516 36.594 0 9.364-2.335 18.151-7.013 26.369-4.678 8.217-11.195 15.288-19.558 21.199zm-25.347-42.631c0-6.567-1.68-11.458-5.041-14.659-3.361-3.207-8.813-4.976-16.362-5.301l-8.853.735-.979 41.153 17.957.981c4.591-2.127 7.959-5.01 10.089-8.621 2.124-3.612 3.189-8.377 3.189-14.288zm165.248 57.17l-61.015.497c1.482 5.746 4.267 9.987 8.369 12.691 4.102 2.71 9.759 4.062 16.978 4.062 8.032 0 19.762-2.054 35.178-6.163l3.447 2.465-7.377 32.532c-12.954 3.452-25.009 5.175-36.164 5.175-20.345 0-36.211-5.427-47.611-16.269-11.4-10.848-17.103-25.798-17.103-44.85 0-18.9 5.412-33.764 16.243-44.599 10.831-10.849 25.665-16.27 44.534-16.27 16.236 0 28.827 4.275 37.766 12.817 8.938 8.542 13.411 20.457 13.411 35.732 0 4.937-.49 10.278-1.482 16.024l-5.174 6.156zm-33.948-27.104c0-8.707-3.692-13.061-11.076-13.061-9.018 0-14.509 5.831-16.481 17.501l27.067-.987.49-3.453zm123.916 75.408l2.461-65.05c0-10.026-3.857-15.036-11.565-15.036-3.772 0-7.629 1.146-11.566 3.452v24.891l1.972 51.749H433.52l2.217-46.812-1.727-66.786 45.519-3.207v17.256h1.721c8.535-8.542 18.128-14.619 28.794-18.237 12.299 0 21.688 2.797 28.172 8.383 6.477 5.586 9.547 13.638 9.229 24.155l-.986 33.519 1.727 51.749h-47.987v-.026zm129.076-34.99c4.267 0 9.19-.981 14.754-2.956l2.951 3.698-4.426 26.62c-3.447 2.134-7.549 4.063-12.293 5.792-4.764 1.73-9.356 2.916-13.782 3.572-12.961 0-23.13-2.956-30.507-8.873-7.384-5.918-11.069-13.798-11.069-23.652l1.475-25.633-.251-30.795h-15.251l-1.237-2.465 1.972-25.388h14.509l-.238-20.941 44.527-11.829 2.951 2.711-1.231 30.059h24.117l1.224 2.466-1.965 25.387H621.15l-1.482 41.644c0 3.943.695 6.693 2.084 8.257 1.416 1.544 3.91 2.326 7.523 2.326zM415.292 262.935v83.181h74.499v-.232c0-22.929-9.368-43.784-24.453-58.907-13.167-13.174-30.66-22.001-50.046-24.042zm0 100.749v51.643h74.499v-51.643h-74.499zm-17.539 51.59v-51.59H323.24v51.643h74.506v-.053h.007zm0-69.158v-83.181c-19.432 2.081-36.879 10.868-50.039 24.042-15.085 15.123-24.467 35.978-24.467 58.907v.232h74.506zm8.766-101.206c27.742 0 52.943 11.372 71.171 29.635 18.287 18.31 29.595 43.552 29.595 71.286v86.971H305.707v-86.965c0-27.786 11.36-53.028 29.588-71.285 18.281-18.27 43.482-29.642 71.224-29.642zM620.297 23.538l113.594 4.64v153.664l-113.594-75.083v-83.22z"/></svg>