<svg viewBox="0 0 812 886" fill="none" xmlns="http://www.w3.org/2000/svg"><path fill-rule="evenodd" clip-rule="evenodd" d="M735.686 0h47.571a29.049 29.049 0 0120.221 8.553A29.258 29.258 0 01812 28.848v828.304a29.258 29.258 0 01-8.522 20.295A29.05 29.05 0 01783.257 886h-47.571a28.689 28.689 0 01-20.324-8.449 28.9 28.9 0 01-8.419-20.399v-14.605a28.642 28.642 0 01-5.605.505h-215.76A30.694 30.694 0 01464 834.037a30.92 30.92 0 01-9.033-21.636V688.246H279.385l-46.707-2.669a170.288 170.288 0 01-46.852-15.434 173.472 173.472 0 01-45.774-33.608H23.331C10.446 636.535 0 626.09 0 613.204c0-12.885 10.446-23.331 23.331-23.331h101.703c31.186 0 32.264.938 37.725 10.242a66.39 66.39 0 0018.612 19.4 130.98 130.98 0 0079.906 27.622H499.56a28.657 28.657 0 0015.297-4.477 28.809 28.809 0 0010.572-11.966 29.603 29.603 0 00-2.515-27.262c-9.342-13.487-21.558-12.26-35.211-12.26h-7.545a6.315 6.315 0 01-4.171-1.979 6.367 6.367 0 01-1.722-4.296v-29.569c0-1.652.649-3.237 1.806-4.412a6.244 6.244 0 014.374-1.863h81.2c35.067 0 34.852-56.398 0-56.398h-81.487a6.31 6.31 0 01-4.305-1.831 6.36 6.36 0 01-1.875-4.299v-30.579a6.215 6.215 0 011.835-4.34 6.172 6.172 0 014.345-1.791h130.638c34.492 0 34.924-56.398 0-56.398H479.942a6.17 6.17 0 01-4.37-1.816 6.219 6.219 0 01-1.809-4.386v-29.93a6.285 6.285 0 011.855-4.319 6.236 6.236 0 014.324-1.811h80.554c35.21 0 35.138-56.11 0-56.11H374.742c-9.773-.649-86.662 3.245-62.302-32.382a101.05 101.05 0 019.126-13.054c4.096-5.048 8.552-10.241 13.007-15.29 9.629-10.746 20.408-22.141 24.719-26.324a66.089 66.089 0 0015.162-24.232 27.48 27.48 0 002.587-11.756 27.84 27.84 0 00-5.704-16.902 27.662 27.662 0 00-14.776-9.926 34.266 34.266 0 00-8.766-.938 36.262 36.262 0 00-16.6 4.111c-14.946 6.779-31.474 26.757-43.115 38.801-32.12 32.237-92.625 93.107-126.758 140.13l-1.15 1.442a72.64 72.64 0 01-47.785 18.679H23.764C10.639 347.404 0 336.765 0 323.641c0-13.125 10.64-23.764 23.764-23.764h103.21c32.192-44.426 85.152-95.488 121.153-130.682 20.408-19.617 45.486-49.836 71.068-60.293a73.923 73.923 0 0129.246-5.986 72.583 72.583 0 0117.175 2.019 70.199 70.199 0 0115.952 6.131 67.175 67.175 0 0114.372 10.024 62.584 62.584 0 0110.779 13.415 74.611 74.611 0 017.185 15.866 73.737 73.737 0 012.875 20.987 76.584 76.584 0 01-3.521 22.79 104.491 104.491 0 01-25.223 41.253l-9.844 9.809-6.108 6.635h10.204c2.409.155 4.808.444 7.186.865h65.494V77.421a30.927 30.927 0 019.007-21.682 30.7 30.7 0 0121.604-9.041h215.544a28.635 28.635 0 015.605.505V28.848a28.904 28.904 0 018.419-20.399A28.693 28.693 0 01735.471 0h.215zM560.348 669.422v31.95a38.946 38.946 0 0011.344 27.415 38.663 38.663 0 0027.316 11.385h107.648V149.361H595.008a38.668 38.668 0 00-27.316 11.386 38.945 38.945 0 00-11.344 27.415v64.909h4.148a64.457 64.457 0 0125.509 5.337 66.317 66.317 0 0121.558 15.217 68.486 68.486 0 0114.372 22.502 72.36 72.36 0 015.03 26.107 74.604 74.604 0 01-2.875 20.266c-.862 3.101-6.539 9.015-3.305 9.015h3.09c72.433.361 92.338 104.791 25.725 134.072a106.82 106.82 0 01-25.51 5.337h-2.515a78.223 78.223 0 011.509 56.398 70.128 70.128 0 01-14.371 22.43 66.328 66.328 0 01-21.558 15.217 64.479 64.479 0 01-25.51 5.265h-6.108C560.808 603.124 561 615.5 560.5 631c0 14.53-.152 19.964-.296 38.422h.144z" fill="#fa8c16"/></svg>