<svg viewBox="0 0 901 624" xmlns="http://www.w3.org/2000/svg"><path fill-rule="evenodd" clip-rule="evenodd" d="M473.301 408.82l1.025-1.471c5.713-8.163 16.993-10.149 25.05-4.413l138.725 97.442c8.13 5.736 10.108 16.988 4.395 25.151L641.47 527c-5.713 8.163-16.993 10.148-25.049 4.412l-138.726-97.441c-8.13-5.663-10.107-16.988-4.394-25.151zM.141 253.648V624h106.937V258.355c26.734-131.344 102.103-167.158 203.034-152.524-45.485 79.498-39.552 160.319 24.83 242.759-8.204 13.458-7.545 28.019 1.538 43.609l20.142 23.313c8.057 8.236 18.091 8.898 30.982-1.545l308.433-312.769c8.35-10.075 6.666-18.826-3.076-26.474-21.827-26.916-24.61-31.55-63.576-24.93-86.429-56.48-168.829-66.555-246.395-21.769C188.379-52.28 22.627 48.617.14 253.648zm647.628 4.634l1.026-1.471c5.713-8.163 16.919-10.149 25.049-4.413l138.726 97.515c8.13 5.737 10.107 17.062 4.394 25.151l-1.025 1.471c-5.713 8.163-16.92 10.149-25.05 4.413l-138.652-97.516c-8.13-5.736-10.108-17.061-4.468-25.15zm79.91-80.601l1.025-1.471c5.714-8.163 16.993-10.149 25.05-4.412l138.725 97.515c8.13 5.736 10.108 17.061 4.395 25.151l-1.025 1.47c-5.713 8.163-16.993 10.149-25.05 4.413l-138.725-97.515c-8.057-5.736-10.108-17.062-4.395-25.151zM568.372 336.235l1.026-1.471c5.713-8.163 16.992-10.149 25.049-4.412l138.725 97.515c8.131 5.736 10.108 16.988 4.468 25.151l-1.025 1.47c-5.713 8.163-16.993 10.149-25.05 4.413l-138.798-97.515c-8.057-5.736-10.035-16.988-4.395-25.151z" fill="#fa8c16"/></svg>