<svg viewBox="0 0 1200 831" xmlns="http://www.w3.org/2000/svg"><path d="M1200 94H94v217c69.035 0 125 76.559 125 171S163.035 653 94 653v178H0V0h1200v94z" fill="#fa8c16"/><path d="M306 535.5c0 20.158-16.342 36.5-36.5 36.5S233 555.658 233 535.5v-107c0-20.158 16.342-36.5 36.5-36.5s36.5 16.342 36.5 36.5v107z" fill="#fa8c16"/><path fill-rule="evenodd" clip-rule="evenodd" d="M891.148 680.47c-3.574 13.337-17.282 21.252-30.619 17.678l-42.339-11.345c-13.337-3.573-21.252-17.282-17.678-30.618 3.573-13.337 17.282-21.252 30.619-17.678l42.339 11.345c13.337 3.573 21.251 17.282 17.678 30.618zm-127.019-34.034c-3.574 13.336-17.282 21.251-30.619 17.677l-84.679-22.69c-13.337-3.573-21.252-17.281-17.678-30.618 3.574-13.337 17.282-21.251 30.619-17.678l84.679 22.69c13.337 3.574 21.251 17.282 17.678 30.619zm-169.359-45.38c-3.574 13.337-17.282 21.251-30.619 17.678l-84.679-22.69c-13.337-3.574-21.252-17.282-17.678-30.619 3.574-13.336 17.282-21.251 30.619-17.677l84.679 22.689c13.337 3.574 21.251 17.282 17.678 30.619zm-169.359-45.38c-3.574 13.337-17.282 21.252-30.619 17.678l-42.34-11.345c-13.336-3.573-21.251-17.282-17.677-30.618 3.573-13.337 17.282-21.252 30.618-17.678l42.34 11.345c13.337 3.573 21.251 17.282 17.678 30.618zM912 480c0 13.807-11.193 25-25 25h-43.833c-13.807 0-25-11.193-25-25s11.193-25 25-25H887c13.807 0 25 11.193 25 25zm-131.5 0c0 13.807-11.193 25-25 25h-87.667c-13.807 0-25-11.193-25-25s11.193-25 25-25H755.5c13.807 0 25 11.193 25 25zm-175.333 0c0 13.807-11.193 25-25 25H492.5c-13.807 0-25-11.193-25-25s11.193-25 25-25h87.667c13.807 0 25 11.193 25 25zm-175.334 0c0 13.807-11.192 25-25 25H361c-13.807 0-25-11.193-25-25s11.193-25 25-25h43.833c13.808 0 25 11.193 25 25zm-93.058-51.53c-3.574-13.336 4.341-27.045 17.677-30.618l42.34-11.345c13.337-3.574 27.045 4.341 30.619 17.678 3.573 13.336-4.341 27.045-17.678 30.618l-42.34 11.345c-13.336 3.574-27.045-4.341-30.618-17.678zm127.019-34.034c-3.574-13.337 4.341-27.045 17.678-30.619l84.679-22.69c13.337-3.573 27.045 4.341 30.619 17.678 3.573 13.337-4.341 27.045-17.678 30.619l-84.679 22.689c-13.337 3.574-27.045-4.341-30.619-17.677zm169.359-45.38c-3.574-13.337 4.341-27.045 17.678-30.619l84.679-22.689c13.337-3.574 27.045 4.341 30.619 17.677 3.573 13.337-4.341 27.045-17.678 30.619l-84.679 22.69c-13.337 3.573-27.045-4.341-30.619-17.678zm169.359-45.38c-3.574-13.336 4.341-27.045 17.678-30.618l42.339-11.345c13.337-3.574 27.045 4.341 30.619 17.678 3.574 13.336-4.341 27.045-17.678 30.618l-42.339 11.345c-13.337 3.574-27.045-4.341-30.619-17.678z" fill="#387AF9"/></svg>