<svg id="Layer_1" data-name="Layer 1" fill="#fa8c16" xmlns="http://www.w3.org/2000/svg" viewBox="0 0 122.88 122.88"><path d="M30.27 0h62.34a30.35 30.35 0 0130.27 30.27v62.34a30.35 30.35 0 01-30.27 30.27H30.27A30.35 30.35 0 010 92.61V30.27A30.35 30.35 0 0130.27 0zm24.54 88.26A17.51 17.51 0 0153 88l-3.27-.46-2-.34q-1-.18-1.95-.39c-.69-.16-1.33-.31-1.89-.46l-.77-.21V73.53l3.57.29 2.63.15 2.75.12 2.79.09h5.22c.77 0 1.44 0 2-.08a12.78 12.78 0 001.59-.24 5.64 5.64 0 001.12-.38 2.47 2.47 0 00.67-.46 1.42 1.42 0 00.34-.53 2.55 2.55 0 00.12-.83v-.76a1.67 1.67 0 00-.64-1.46 2.92 2.92 0 00-.87-.42 3.55 3.55 0 00-1.07-.15H59.6a26.7 26.7 0 01-7.39-.93 14.77 14.77 0 01-5.52-2.86 11.77 11.77 0 01-3.44-5.2 22.5 22.5 0 01-1.11-7.48v-2.3a18.83 18.83 0 011.23-7.1 12.8 12.8 0 013.74-5.17 17.8 17.8 0 013.7-2.44 15.11 15.11 0 014-1.2v-5.58h11.65V34a51.82 51.82 0 015.31.77l1 .17c.82.14 1.63.3 2.44.47s1.49.32 2.18.48l.79.2v12.64l-1.18-.1c-1.11-.1-2.24-.19-3.38-.25s-2.49-.15-3.78-.21-2.61-.1-3.78-.12-2.23 0-3.44 0q-1 0-1.77.06a15.21 15.21 0 00-1.53.19 4.74 4.74 0 00-1.1.34 2.48 2.48 0 00-.71.49 1.55 1.55 0 00-.38.63A3.42 3.42 0 0057 50.8v.69a2.86 2.86 0 00.2 1.13 1.87 1.87 0 00.53.71 2.69 2.69 0 001 .48 6.75 6.75 0 001.77.19h4.59a21.57 21.57 0 014.69.49A14 14 0 0173.7 56a13 13 0 015.3 5.42 15.71 15.71 0 011.32 3.63 18.26 18.26 0 01.43 4v2.3a27.6 27.6 0 01-.6 6A13.82 13.82 0 0178.26 82a12 12 0 01-3 3.18 12.88 12.88 0 01-4.07 1.94l-.39.11a22.48 22.48 0 01-4.3.93v6.06H54.81v-6zm37.8-76.16H30.27A18.23 18.23 0 0012.1 30.27v62.34a18.23 18.23 0 0018.17 18.17h62.34a18.23 18.23 0 0018.17-18.17V30.27A18.23 18.23 0 0092.61 12.1z"/></svg>